<?xml version="1.0" encoding="UTF-8" standalone="no"?>
<!-- Created with Inkscape (http://www.inkscape.org/) -->

<svg
   width="865.91956mm"
   height="619.59131mm"
   viewBox="0 0 865.91956 619.59131"
   version="1.1"
   id="svg222"
   inkscape:version="1.1.2 (76b9e6a115, 2022-02-25)"
   xmlns:inkscape="http://www.inkscape.org/namespaces/inkscape"
   xmlns:sodipodi="http://sodipodi.sourceforge.net/DTD/sodipodi-0.dtd"
   xmlns="http://www.w3.org/2000/svg"
   xmlns:svg="http://www.w3.org/2000/svg">
  <sodipodi:namedview
     id="namedview224"
     pagecolor="#ffffff"
     bordercolor="#666666"
     borderopacity="1.0"
     inkscape:pageshadow="2"
     inkscape:pageopacity="0.0"
     inkscape:pagecheckerboard="0"
     inkscape:document-units="mm"
     showgrid="false"
     fit-margin-top="0"
     fit-margin-left="0"
     fit-margin-right="0"
     fit-margin-bottom="0"
     inkscape:zoom="0.17727627"
     inkscape:cx="2857.1224"
     inkscape:cy="826.39375"
     inkscape:window-width="1876"
     inkscape:window-height="1136"
     inkscape:window-x="44"
     inkscape:window-y="27"
     inkscape:window-maximized="1"
     inkscape:current-layer="layer1" />
  <defs
     id="defs219" />
  <g
     inkscape:label="Layer 1"
     inkscape:groupmode="layer"
     id="layer1"
     transform="translate(557.29499,344.4938)">
    <g
       id="g14523"
       transform="matrix(0.23666607,0,0,0.23666607,-16.697012,-10.371542)"
       style="fill:#399746;fill-opacity:1">
      <path
         fill="#333333"
         d="m -573.2826,-344.99782 h -1626.39 c -46.621,0 -84.549,37.929 -84.549,84.55 v 315.328 c 0,46.615 37.928,84.54 84.549,84.54 h 1626.391 c 46.625,0 84.55,-37.925 84.55,-84.54 v -315.328 c 0,-46.621 -37.926,-84.55 -84.551,-84.55 z m 21.551,399.878 c 0,11.882 -9.668,21.541 -21.551,21.541 h -1626.39 c -11.883,0 -21.55,-9.659 -21.55,-21.541 v -315.328 c 0,-11.883 9.667,-21.55 21.55,-21.55 h 1626.391 c 11.883,0 21.551,9.667 21.551,21.55 v 315.328 z"
         id="path113"
         style="fill:#399746;fill-opacity:1" />
      <path
         fill="#333333"
         d="m -2023.7846,-156.24182 c -29.518,0 -53.45,23.933 -53.45,53.448 0,29.521 23.932,53.445 53.45,53.445 29.518,0 53.45,-23.924 53.45,-53.445 10e-4,-29.515 -23.932,-53.448 -53.45,-53.448 z"
         id="path115"
         style="fill:#399746;fill-opacity:1" />
      <path
         fill="#333333"
         d="m -1839.4596,-156.24182 c -29.522,0 -53.455,23.933 -53.455,53.448 0,29.521 23.932,53.445 53.455,53.445 29.513,0 53.445,-23.924 53.445,-53.445 0,-29.515 -23.933,-53.448 -53.445,-53.448 z"
         id="path117"
         style="fill:#399746;fill-opacity:1" />
      <path
         fill="#333333"
         d="m -1655.1386,-156.24182 c -29.522,0 -53.454,23.933 -53.454,53.448 0,29.521 23.932,53.445 53.454,53.445 29.513,0 53.445,-23.924 53.445,-53.445 0,-29.515 -23.932,-53.448 -53.445,-53.448 z"
         id="path119"
         style="fill:#399746;fill-opacity:1" />
      <path
         fill="#333333"
         d="m -718.7396,-134.29982 h -640.484 c -17.394,0 -31.5,14.102 -31.5,31.497 0,17.402 14.106,31.5 31.5,31.5 h 640.484 c 17.394,0 31.5,-14.098 31.5,-31.5 0,-17.395 -14.106,-31.497 -31.5,-31.497 z"
         id="path121"
         style="fill:#399746;fill-opacity:1" />
    </g>
    <g
       id="g14530"
       transform="matrix(0.23666607,0,0,0.23666607,-16.697012,-10.300889)"
       style="fill:#399746;fill-opacity:1">
      <path
         fill="#333333"
         d="m -573.2826,188.09718 h -1626.39 c -46.621,0 -84.549,37.934 -84.549,84.551 v 315.329 c 0,46.616 37.928,84.54 84.549,84.54 h 1626.391 c 46.625,0 84.55,-37.924 84.55,-84.54 v -315.329 c 0,-46.617 -37.926,-84.551 -84.551,-84.551 z m 21.551,399.88 c 0,11.882 -9.668,21.542 -21.551,21.542 h -1626.39 c -11.883,0 -21.55,-9.66 -21.55,-21.542 v -315.329 c 0,-11.883 9.667,-21.551 21.55,-21.551 h 1626.391 c 11.883,0 21.551,9.668 21.551,21.551 v 315.329 z"
         id="path123"
         style="fill:#399746;fill-opacity:1" />
      <path
         fill="#333333"
         d="m -2023.7846,376.85818 c -29.518,0 -53.45,23.933 -53.45,53.445 0,29.522 23.932,53.446 53.45,53.446 29.518,0 53.45,-23.924 53.45,-53.446 10e-4,-29.513 -23.932,-53.445 -53.45,-53.445 z"
         id="path125"
         style="fill:#399746;fill-opacity:1" />
      <path
         fill="#333333"
         d="m -1839.4596,376.85818 c -29.522,0 -53.455,23.933 -53.455,53.445 0,29.522 23.932,53.446 53.455,53.446 29.513,0 53.445,-23.924 53.445,-53.446 0,-29.513 -23.933,-53.445 -53.445,-53.445 z"
         id="path127"
         style="fill:#399746;fill-opacity:1" />
      <path
         fill="#333333"
         d="m -1655.1386,376.85818 c -29.522,0 -53.454,23.933 -53.454,53.445 0,29.522 23.932,53.446 53.454,53.446 29.513,0 53.445,-23.924 53.445,-53.446 0,-29.513 -23.932,-53.445 -53.445,-53.445 z"
         id="path129"
         style="fill:#399746;fill-opacity:1" />
      <path
         fill="#333333"
         d="m -718.7396,398.79418 h -640.484 c -17.394,0 -31.5,14.107 -31.5,31.5 0,17.402 14.106,31.5 31.5,31.5 h 640.484 c 17.394,0 31.5,-14.098 31.5,-31.5 0,-17.392 -14.106,-31.5 -31.5,-31.5 z"
         id="path131"
         style="fill:#399746;fill-opacity:1" />
    </g>
    <g
       id="g14504"
       transform="matrix(0.23666607,0,0,0.23666607,-16.697012,-8.2208445)">
      <path
         fill="#333333"
         d="m -573.2826,-887.48082 h -1626.39 c -46.621,0 -84.55,37.929 -84.55,84.55 v 315.329 c 0,46.617 37.928,84.541 84.549,84.541 h 1626.391 c 46.625,0 84.55,-37.924 84.55,-84.541 v -315.329 c 0,-46.621 -37.925,-84.55 -84.55,-84.55 z m 21.551,399.879 c 0,11.878 -9.668,21.542 -21.551,21.542 h -1626.39 c -11.883,0 -21.55,-9.664 -21.55,-21.542 v -315.329 c 0,-11.883 9.667,-21.551 21.55,-21.551 h 1626.391 c 11.883,0 21.551,9.668 21.551,21.551 v 315.329 z"
         id="path133"
         style="fill:#4d64ae;fill-opacity:1" />
      <circle
         fill="#333333"
         cx="-2023.7845"
         cy="-645.27686"
         r="53.448002"
         id="circle135"
         style="fill:#4d64ae;fill-opacity:1" />
      <path
         fill="#333333"
         d="m -1839.4596,-698.72482 c -29.522,0 -53.455,23.932 -53.455,53.45 0,29.518 23.932,53.446 53.455,53.446 29.513,0 53.445,-23.928 53.445,-53.446 0,-29.518 -23.933,-53.45 -53.445,-53.45 z"
         id="path137"
         style="fill:#4d64ae;fill-opacity:1" />
      <path
         fill="#333333"
         d="m -1655.1386,-698.72482 c -29.522,0 -53.454,23.932 -53.454,53.45 0,29.518 23.932,53.446 53.454,53.446 29.513,0 53.445,-23.928 53.445,-53.446 0,-29.518 -23.932,-53.45 -53.445,-53.45 z"
         id="path139"
         style="fill:#4d64ae;fill-opacity:1" />
      <path
         fill="#333333"
         d="m -718.7396,-676.78382 h -640.484 c -17.394,0 -31.5,14.102 -31.5,31.5 0,17.398 14.106,31.5 31.5,31.5 h 640.484 c 17.394,0 31.5,-14.102 31.5,-31.5 0,-17.398 -14.106,-31.5 -31.5,-31.5 z"
         id="path141"
         style="fill:#4d64ae;fill-opacity:1" />
    </g>
    <g
       id="g14516"
       transform="matrix(0.23666607,0,0,0.23666607,-16.697012,-134.4572)">
      <path
         fill="#333333"
         d="m -573.2826,-887.48082 h -1626.39 c -46.621,0 -84.55,37.929 -84.55,84.55 v 315.329 c 0,46.617 37.928,84.541 84.549,84.541 h 1626.391 c 46.625,0 84.55,-37.924 84.55,-84.541 v -315.329 c 0,-46.621 -37.925,-84.55 -84.55,-84.55 z m 21.551,399.879 c 0,11.878 -9.668,21.542 -21.551,21.542 h -1626.39 c -11.883,0 -21.55,-9.664 -21.55,-21.542 v -315.329 c 0,-11.883 9.667,-21.551 21.55,-21.551 h 1626.391 c 11.883,0 21.551,9.668 21.551,21.551 v 315.329 z"
         id="path14506"
         style="fill:#4d64ae;fill-opacity:1" />
      <circle
         fill="#333333"
         cx="-2023.7845"
         cy="-645.27686"
         r="53.448002"
         id="circle14508"
         style="fill:#4d64ae;fill-opacity:1" />
      <path
         fill="#333333"
         d="m -1839.4596,-698.72482 c -29.522,0 -53.455,23.932 -53.455,53.45 0,29.518 23.932,53.446 53.455,53.446 29.513,0 53.445,-23.928 53.445,-53.446 0,-29.518 -23.933,-53.45 -53.445,-53.45 z"
         id="path14510"
         style="fill:#4d64ae;fill-opacity:1" />
      <path
         fill="#333333"
         d="m -1655.1386,-698.72482 c -29.522,0 -53.454,23.932 -53.454,53.45 0,29.518 23.932,53.446 53.454,53.446 29.513,0 53.445,-23.928 53.445,-53.446 0,-29.518 -23.932,-53.45 -53.445,-53.45 z"
         id="path14512"
         style="fill:#4d64ae;fill-opacity:1" />
      <path
         fill="#333333"
         d="m -718.7396,-676.78382 h -640.484 c -17.394,0 -31.5,14.102 -31.5,31.5 0,17.398 14.106,31.5 31.5,31.5 h 640.484 c 17.394,0 31.5,-14.102 31.5,-31.5 0,-17.398 -14.106,-31.5 -31.5,-31.5 z"
         id="path14514"
         style="fill:#4d64ae;fill-opacity:1" />
    </g>
    <path
       fill="#333333"
       d="m -152.37355,160.45174 h -384.91132 c -11.0336,0 -20.00988,8.97767 -20.00988,20.01035 v 74.62765 c 0,11.03245 8.97628,20.00775 20.00988,20.00775 h 384.91156 c 11.03455,0 20.01011,-8.9753 20.01011,-20.00775 v -74.62765 c 0,-11.03268 -8.97579,-20.01035 -20.01035,-20.01035 z m 5.1004,94.638 c 0,2.81206 -2.28811,5.09826 -5.1004,5.09826 h -384.91132 c -2.81232,0 -5.10017,-2.2862 -5.10017,-5.09826 v -74.62765 c 0,-2.81233 2.28785,-5.1004 5.10017,-5.1004 h 384.91156 c 2.81228,0 5.1004,2.28807 5.1004,5.1004 v 74.62765 z"
       id="path14532"
       style="fill:#399746;fill-opacity:1;stroke-width:0.236666" />
    <path
       fill="#333333"
       d="m -495.65814,205.12505 c -6.98591,0 -12.64982,5.66412 -12.64982,12.6486 0,6.98687 5.66391,12.64887 12.64982,12.64887 6.9859,0 12.64979,-5.662 12.64979,-12.64887 2.3e-4,-6.98472 -5.66389,-12.6486 -12.64979,-12.6486 z"
       id="path14534"
       style="fill:#399746;fill-opacity:1;stroke-width:0.236666" />
    <path
       fill="#333333"
       d="m -452.03467,205.12505 c -6.98686,0 -12.65101,5.66412 -12.65101,12.6486 0,6.98687 5.66392,12.64887 12.65101,12.64887 6.98472,0 12.6486,-5.662 12.6486,-12.64887 0,-6.98472 -5.66411,-12.6486 -12.6486,-12.6486 z"
       id="path14536"
       style="fill:#399746;fill-opacity:1;stroke-width:0.236666" />
    <path
       fill="#333333"
       d="m -408.41215,205.12505 c -6.98686,0 -12.65074,5.66412 -12.65074,12.6486 0,6.98687 5.66388,12.64887 12.65074,12.64887 6.98472,0 12.6486,-5.662 12.6486,-12.64887 0,-6.98472 -5.66388,-12.6486 -12.6486,-12.6486 z"
       id="path14538"
       style="fill:#399746;fill-opacity:1;stroke-width:0.236666" />
    <path
       fill="#333333"
       d="m -186.79828,210.31657 h -151.58085 c -4.11656,0 -7.45497,3.33864 -7.45497,7.45497 0,4.11844 3.33841,7.45498 7.45497,7.45498 h 151.58085 c 4.11656,0 7.45498,-3.33654 7.45498,-7.45498 0,-4.1161 -3.33842,-7.45497 -7.45498,-7.45497 z"
       id="path14540"
       style="fill:#399746;fill-opacity:1;stroke-width:0.236666" />
    <g
       id="g14586"
       transform="matrix(0.23666607,0,0,0.23666607,424.29073,-10.371542)"
       style="fill:#ca3c32;fill-opacity:1">
      <path
         fill="#333333"
         d="m -573.2826,-344.99782 h -1626.39 c -46.621,0 -84.549,37.929 -84.549,84.55 v 315.328 c 0,46.615 37.928,84.54 84.549,84.54 h 1626.391 c 46.625,0 84.55,-37.925 84.55,-84.54 v -315.328 c 0,-46.621 -37.926,-84.55 -84.551,-84.55 z m 21.551,399.878 c 0,11.882 -9.668,21.541 -21.551,21.541 h -1626.39 c -11.883,0 -21.55,-9.659 -21.55,-21.541 v -315.328 c 0,-11.883 9.667,-21.55 21.55,-21.55 h 1626.391 c 11.883,0 21.551,9.667 21.551,21.55 v 315.328 z"
         id="path14576"
         style="fill:#ca3c32;fill-opacity:1" />
      <path
         fill="#333333"
         d="m -2023.7846,-156.24182 c -29.518,0 -53.45,23.933 -53.45,53.448 0,29.521 23.932,53.445 53.45,53.445 29.518,0 53.45,-23.924 53.45,-53.445 10e-4,-29.515 -23.932,-53.448 -53.45,-53.448 z"
         id="path14578"
         style="fill:#ca3c32;fill-opacity:1" />
      <path
         fill="#333333"
         d="m -1839.4596,-156.24182 c -29.522,0 -53.455,23.933 -53.455,53.448 0,29.521 23.932,53.445 53.455,53.445 29.513,0 53.445,-23.924 53.445,-53.445 0,-29.515 -23.933,-53.448 -53.445,-53.448 z"
         id="path14580"
         style="fill:#ca3c32;fill-opacity:1" />
      <path
         fill="#333333"
         d="m -1655.1386,-156.24182 c -29.522,0 -53.454,23.933 -53.454,53.448 0,29.521 23.932,53.445 53.454,53.445 29.513,0 53.445,-23.924 53.445,-53.445 0,-29.515 -23.932,-53.448 -53.445,-53.448 z"
         id="path14582"
         style="fill:#ca3c32;fill-opacity:1" />
      <path
         fill="#333333"
         d="m -718.7396,-134.29982 h -640.484 c -17.394,0 -31.5,14.102 -31.5,31.497 0,17.402 14.106,31.5 31.5,31.5 h 640.484 c 17.394,0 31.5,-14.098 31.5,-31.5 0,-17.395 -14.106,-31.497 -31.5,-31.497 z"
         id="path14584"
         style="fill:#ca3c32;fill-opacity:1" />
    </g>
    <path
       fill="#333333"
       d="M 288.6142,34.215346 H -96.297127 c -11.033593,0 -20.009883,8.977676 -20.009883,20.010349 v 74.627655 c 0,11.03244 8.97629,20.00774 20.009883,20.00774 H 288.61443 c 11.03455,0 20.01011,-8.9753 20.01011,-20.00774 V 54.225695 c 0,-11.032673 -8.97579,-20.010349 -20.01034,-20.010349 z m 5.1004,94.638004 c 0,2.81206 -2.28812,5.09826 -5.1004,5.09826 H -96.297127 c -2.812322,0 -5.100173,-2.2862 -5.100173,-5.09826 V 54.225695 c 0,-2.812322 2.287851,-5.1004 5.100173,-5.1004 H 288.61443 c 2.81228,0 5.1004,2.288078 5.1004,5.1004 v 74.627655 z"
       id="path14588"
       style="fill:#9259a3;fill-opacity:1;stroke-width:0.236666" />
    <path
       fill="#333333"
       d="m -54.670402,78.888663 c -6.985907,0 -12.649821,5.664112 -12.649821,12.6486 0,6.986865 5.663914,12.648867 12.649821,12.648867 6.985908,0 12.649789,-5.662002 12.649789,-12.648867 2.31e-4,-6.984719 -5.663881,-12.6486 -12.649789,-12.6486 z"
       id="path14590"
       style="fill:#9259a3;fill-opacity:1;stroke-width:0.236666" />
    <path
       fill="#333333"
       d="m -11.046925,78.888663 c -6.986865,0 -12.65101,5.664112 -12.65101,12.6486 0,6.986865 5.663914,12.648867 12.65101,12.648867 6.9847194,0 12.6486004,-5.662002 12.6486004,-12.648867 0,-6.984719 -5.664112,-12.6486 -12.6486004,-12.6486 z"
       id="path14592"
       style="fill:#9259a3;fill-opacity:1;stroke-width:0.236666" />
    <path
       fill="#333333"
       d="m 32.575595,78.888663 c -6.986865,0 -12.650746,5.664112 -12.650746,12.6486 0,6.986865 5.663881,12.648867 12.650746,12.648867 6.984719,0 12.6486,-5.662002 12.6486,-12.648867 0,-6.984719 -5.663881,-12.6486 -12.6486,-12.6486 z"
       id="path14594"
       style="fill:#9259a3;fill-opacity:1;stroke-width:0.236666" />
    <path
       fill="#333333"
       d="M 254.18946,84.080177 H 102.60861 c -4.116556,0 -7.454969,3.338644 -7.454969,7.454974 0,4.118442 3.338413,7.454975 7.454969,7.454975 h 151.58085 c 4.11656,0 7.45498,-3.336533 7.45498,-7.454975 0,-4.116099 -3.33842,-7.454974 -7.45498,-7.454974 z"
       id="path14596"
       style="fill:#9259a3;fill-opacity:1;stroke-width:0.236666" />
    <g
       id="g14610"
       transform="matrix(0.23666607,0,0,0.23666607,424.29073,-8.2208445)"
       style="fill:#ca3c32;fill-opacity:1">
      <path
         fill="#333333"
         d="m -573.2826,-887.48082 h -1626.39 c -46.621,0 -84.55,37.929 -84.55,84.55 v 315.329 c 0,46.617 37.928,84.541 84.549,84.541 h 1626.391 c 46.625,0 84.55,-37.924 84.55,-84.541 v -315.329 c 0,-46.621 -37.925,-84.55 -84.55,-84.55 z m 21.551,399.879 c 0,11.878 -9.668,21.542 -21.551,21.542 h -1626.39 c -11.883,0 -21.55,-9.664 -21.55,-21.542 v -315.329 c 0,-11.883 9.667,-21.551 21.55,-21.551 h 1626.391 c 11.883,0 21.551,9.668 21.551,21.551 v 315.329 z"
         id="path14600"
         style="fill:#ca3c32;fill-opacity:1" />
      <circle
         fill="#333333"
         cx="-2023.7845"
         cy="-645.27686"
         r="53.448002"
         id="circle14602"
         style="fill:#ca3c32;fill-opacity:1" />
      <path
         fill="#333333"
         d="m -1839.4596,-698.72482 c -29.522,0 -53.455,23.932 -53.455,53.45 0,29.518 23.932,53.446 53.455,53.446 29.513,0 53.445,-23.928 53.445,-53.446 0,-29.518 -23.933,-53.45 -53.445,-53.45 z"
         id="path14604"
         style="fill:#ca3c32;fill-opacity:1" />
      <path
         fill="#333333"
         d="m -1655.1386,-698.72482 c -29.522,0 -53.454,23.932 -53.454,53.45 0,29.518 23.932,53.446 53.454,53.446 29.513,0 53.445,-23.928 53.445,-53.446 0,-29.518 -23.932,-53.45 -53.445,-53.45 z"
         id="path14606"
         style="fill:#ca3c32;fill-opacity:1" />
      <path
         fill="#333333"
         d="m -718.7396,-676.78382 h -640.484 c -17.394,0 -31.5,14.102 -31.5,31.5 0,17.398 14.106,31.5 31.5,31.5 h 640.484 c 17.394,0 31.5,-14.102 31.5,-31.5 0,-17.398 -14.106,-31.5 -31.5,-31.5 z"
         id="path14608"
         style="fill:#ca3c32;fill-opacity:1" />
    </g>
    <g
       id="g14622"
       transform="matrix(0.23666607,0,0,0.23666607,424.29073,-134.4572)"
       style="fill:#ca3c32;fill-opacity:1">
      <path
         fill="#333333"
         d="m -573.2826,-887.48082 h -1626.39 c -46.621,0 -84.55,37.929 -84.55,84.55 v 315.329 c 0,46.617 37.928,84.541 84.549,84.541 h 1626.391 c 46.625,0 84.55,-37.924 84.55,-84.541 v -315.329 c 0,-46.621 -37.925,-84.55 -84.55,-84.55 z m 21.551,399.879 c 0,11.878 -9.668,21.542 -21.551,21.542 h -1626.39 c -11.883,0 -21.55,-9.664 -21.55,-21.542 v -315.329 c 0,-11.883 9.667,-21.551 21.55,-21.551 h 1626.391 c 11.883,0 21.551,9.668 21.551,21.551 v 315.329 z"
         id="path14612"
         style="fill:#ca3c32;fill-opacity:1" />
      <circle
         fill="#333333"
         cx="-2023.7845"
         cy="-645.27686"
         r="53.448002"
         id="circle14614"
         style="fill:#ca3c32;fill-opacity:1" />
      <path
         fill="#333333"
         d="m -1839.4596,-698.72482 c -29.522,0 -53.455,23.932 -53.455,53.45 0,29.518 23.932,53.446 53.455,53.446 29.513,0 53.445,-23.928 53.445,-53.446 0,-29.518 -23.933,-53.45 -53.445,-53.45 z"
         id="path14616"
         style="fill:#ca3c32;fill-opacity:1" />
      <path
         fill="#333333"
         d="m -1655.1386,-698.72482 c -29.522,0 -53.454,23.932 -53.454,53.45 0,29.518 23.932,53.446 53.454,53.446 29.513,0 53.445,-23.928 53.445,-53.446 0,-29.518 -23.932,-53.45 -53.445,-53.45 z"
         id="path14618"
         style="fill:#ca3c32;fill-opacity:1" />
      <path
         fill="#333333"
         d="m -718.7396,-676.78382 h -640.484 c -17.394,0 -31.5,14.102 -31.5,31.5 0,17.398 14.106,31.5 31.5,31.5 h 640.484 c 17.394,0 31.5,-14.102 31.5,-31.5 0,-17.398 -14.106,-31.5 -31.5,-31.5 z"
         id="path14620"
         style="fill:#ca3c32;fill-opacity:1" />
    </g>
    <path
       fill="#333333"
       d="M 288.6142,160.45174 H -96.297127 c -11.033593,0 -20.009883,8.97767 -20.009883,20.01035 v 74.62765 c 0,11.03245 8.97629,20.00775 20.009883,20.00775 H 288.61443 c 11.03455,0 20.01011,-8.9753 20.01011,-20.00775 v -74.62765 c 0,-11.03268 -8.97579,-20.01035 -20.01034,-20.01035 z m 5.1004,94.638 c 0,2.81206 -2.28812,5.09826 -5.1004,5.09826 H -96.297127 c -2.812322,0 -5.100173,-2.2862 -5.100173,-5.09826 v -74.62765 c 0,-2.81233 2.287851,-5.1004 5.100173,-5.1004 H 288.61443 c 2.81228,0 5.1004,2.28807 5.1004,5.1004 v 74.62765 z"
       id="path14624"
       style="fill:#9259a3;fill-opacity:1;stroke-width:0.236666" />
    <path
       fill="#333333"
       d="m -54.670402,205.12505 c -6.985907,0 -12.649821,5.66412 -12.649821,12.6486 0,6.98687 5.663914,12.64887 12.649821,12.64887 6.985908,0 12.649789,-5.662 12.649789,-12.64887 2.31e-4,-6.98472 -5.663881,-12.6486 -12.649789,-12.6486 z"
       id="path14626"
       style="fill:#9259a3;fill-opacity:1;stroke-width:0.236666" />
    <path
       fill="#333333"
       d="m -11.046925,205.12505 c -6.986865,0 -12.65101,5.66412 -12.65101,12.6486 0,6.98687 5.663914,12.64887 12.65101,12.64887 6.9847194,0 12.6486004,-5.662 12.6486004,-12.64887 0,-6.98472 -5.664112,-12.6486 -12.6486004,-12.6486 z"
       id="path14628"
       style="fill:#9259a3;fill-opacity:1;stroke-width:0.236666" />
    <path
       fill="#333333"
       d="m 32.575595,205.12505 c -6.986865,0 -12.650746,5.66412 -12.650746,12.6486 0,6.98687 5.663881,12.64887 12.650746,12.64887 6.984719,0 12.6486,-5.662 12.6486,-12.64887 0,-6.98472 -5.663881,-12.6486 -12.6486,-12.6486 z"
       id="path14630"
       style="fill:#9259a3;fill-opacity:1;stroke-width:0.236666" />
    <path
       fill="#333333"
       d="M 254.18946,210.31657 H 102.60861 c -4.116556,0 -7.454969,3.33864 -7.454969,7.45497 0,4.11844 3.338413,7.45498 7.454969,7.45498 h 151.58085 c 4.11656,0 7.45498,-3.33654 7.45498,-7.45498 0,-4.1161 -3.33842,-7.45497 -7.45498,-7.45497 z"
       id="path14632"
       style="fill:#9259a3;fill-opacity:1;stroke-width:0.236666" />
  </g>
</svg>
